{"asset":{"version":"2.0","generator":"THREE.GLTFExporter"},"scenes":[{"name":"AuxScene","nodes":[14]}],"scene":0,"nodes":[{"name":"ECAL_Cryo_front_0","mesh":0},{"children":[0]},{"name":"ECAL_Cryo_back_1","mesh":1},{"children":[2]},{"name":"ECAL_Cryo_side_2","mesh":2},{"children":[4]},{"name":"services_front_3","mesh":3},{"children":[6]},{"name":"services_back_4","mesh":4},{"children":[8]},{"name":"LAr_bath_5","mesh":5},{"children":[10]},{"children":[1,3,5,7,9,11]},{"children":[12]},{"children":[13]}],"bufferViews":[{"buffer":0,"byteOffset":0,"byteLength":17280,"target":34962,"byteStride":12},{"buffer":0,"byteOffset":17280,"byteLength":17280,"target":34962,"byteStride":12},{"buffer":0,"byteOffset":34560,"byteLength":17280,"target":34962,"byteStride":12},{"buffer":0,"byteOffset":51840,"byteLength":17280,"target":34962,"byteStride":12},{"buffer":0,"byteOffset":69120,"byteLength":41760,"target":34962,"byteStride":12},{"buffer":0,"byteOffset":110880,"byteLength":41760,"target":34962,"byteStride":12},{"buffer":0,"byteOffset":152640,"byteLength":17280,"target":34962,"byteStride":12},{"buffer":0,"byteOffset":169920,"byteLength":17280,"target":34962,"byteStride":12},{"buffer":0,"byteOffset":187200,"byteLength":17280,"target":34962,"byteStride":12},{"buffer":0,"byteOffset":204480,"byteLength":17280,"target":34962,"byteStride":12},{"buffer":0,"byteOffset":221760,"byteLength":17280,"target":34962,"byteStride":12},{"buffer":0,"byteOffset":239040,"byteLength":17280,"target":34962,"byteStride":12}],"buffers":[{"byteLength":256320,"uri":"data:application/octet-stream;base64,"}],"accessors":[{"bufferView":0,"componentType":5126,"count":1440,"max":[215,215,226],"min":[-215,-215,-226],"type":"VEC3"},{"bufferView":1,"componentType":5126,"count":1440,"max":[1,1,1],"min":[-1,-1,-1],"type":"VEC3"},{"bufferView":2,"componentType":5126,"count":1440,"max":[270,270,226],"min":[-270,-270,-226],"type":"VEC3"},{"bufferView":3,"componentType":5126,"count":1440,"max":[1,1,1],"min":[-1,-1,-1],"type":"VEC3"},{"bufferView":4,"componentType":5126,"count":3480,"max":[260,260,226],"min":[-260,-260,-226],"type":"VEC3"},{"bufferView":5,"componentType":5126,"count":3480,"max":[1,1,1],"min":[-1,-1,-1],"type":"VEC3"},{"bufferView":6,"componentType":5126,"count":1440,"max":[216,216,216],"min":[-216,-216,-216],"type":"VEC3"},{"bufferView":7,"componentType":5126,"count":1440,"max":[1,1,1],"min":[-1,-1,-1],"type":"VEC3"},{"bufferView":8,"componentType":5126,"count":1440,"max":[260,260,216],"min":[-260,-260,-216],"type":"VEC3"},{"bufferView":9,"componentType":5126,"count":1440,"max":[1,1,1],"min":[-1,-1,-1],"type":"VEC3"},{"bufferView":10,"componentType":5126,"count":1440,"max":[256,256,216],"min":[-256,-256,-216],"type":"VEC3"},{"bufferView":11,"componentType":5126,"count":1440,"max":[1,1,1],"min":[-1,-1,-1],"type":"VEC3"}],"materials":[{"pbrMetallicRoughness":{"baseColorFactor":[0.9529411764705882,0.9529411764705882,0.9529411764705882,1],"metallicFactor":0.5,"roughnessFactor":0.5}},{"pbrMetallicRoughness":{"baseColorFactor":[0.9529411764705882,0.9529411764705882,0.9529411764705882,1],"metallicFactor":0.5,"roughnessFactor":0.5}},{"pbrMetallicRoughness":{"baseColorFactor":[0.9529411764705882,0.9529411764705882,0.9529411764705882,1],"metallicFactor":0.5,"roughnessFactor":0.5}},{"pbrMetallicRoughness":{"baseColorFactor":[0.9529411764705882,0.9529411764705882,0.9529411764705882,1],"metallicFactor":0.5,"roughnessFactor":0.5}},{"pbrMetallicRoughness":{"baseColorFactor":[0.9529411764705882,0.9529411764705882,0.9529411764705882,1],"metallicFactor":0.5,"roughnessFactor":0.5}},{"pbrMetallicRoughness":{"baseColorFactor":[0.9529411764705882,0.9529411764705882,0.9529411764705882,1],"metallicFactor":0.5,"roughnessFactor":0.5}}],"meshes":[{"primitives":[{"mode":4,"attributes":{"POSITION":0,"NORMAL":1},"material":0}]},{"primitives":[{"mode":4,"attributes":{"POSITION":2,"NORMAL":3},"material":1}]},{"primitives":[{"mode":4,"attributes":{"POSITION":4,"NORMAL":5},"material":2}]},{"primitives":[{"mode":4,"attributes":{"POSITION":6,"NORMAL":7},"material":3}]},{"primitives":[{"mode":4,"attributes":{"POSITION":8,"NORMAL":9},"material":4}]},{"primitives":[{"mode":4,"attributes":{"POSITION":10,"NORMAL":11},"material":5}]}]}